<svg id="facebook" viewBox="0 0 400 400"><defs><style>.background,.icon{fill:#3b5998;}</style></defs><circle class="background" cx="200" cy="200" r="200"/><path class="icon" d="M186.63,102.45c9-8.57,21.81-11.47,33.89-11.83,12.78-.11,25.55,0,38.32,0q.09,20.22,0,40.44c-8.26,0-16.52,0-24.78,0-5.23-.33-10.61,3.64-11.56,8.83-.13,9-.05,18,0,27.06,12.11,0,24.22,0,36.33,0-.89,13-2.51,26-4.4,39-10.7.1-21.4,0-32.1.06-.1,38.48.05,77-.08,115.44-15.88.06-31.78,0-47.67,0-.3-38.48,0-77-.17-115.48-7.75-.08-15.5.06-23.25-.06,0-12.94,0-25.88,0-38.81,7.75-.09,15.5,0,23.24-.05.24-12.58-.23-25.17.25-37.74C175.4,119.35,179.19,109.33,186.63,102.45Z"/></svg>
