<svg viewBox="0 0 400 400"><defs><style>.background{fill:#191717;}.icon{fill:#191717;}</style></defs><g id="github"><circle class="background" cx="200" cy="200" r="200"/><path class="icon" d="M200.41,74.87A125.24,125.24,0,0,0,75,200.28c0,55.18,36,102,86.12,118.72,6.69.84,8.36-2.5,8.36-5.85V291.41c-35.12,7.53-42.64-16.72-42.64-16.72-5.86-14.21-14.22-18.39-14.22-18.39-11.7-7.53.84-7.53.84-7.53,12.54.84,19.23,12.54,19.23,12.54,10.87,19.23,29.26,13.38,36.79,10,.83-8.36,4.18-13.38,8.36-16.72C150.25,251.28,121,240.41,121,192.75a49.84,49.84,0,0,1,12.55-33.44c-1.68-3.34-5.86-15.88.83-33.44,0,0,10.87-3.35,34.28,12.54a132.27,132.27,0,0,1,31.77-4.18,132.21,132.21,0,0,1,31.77,4.18c24.25-15.89,34.28-12.54,34.28-12.54,6.69,17.56,2.51,30.1.84,33.44,8.36,8.36,12.54,20.07,12.54,33.44,0,48.5-29.26,58.53-56.85,61.88,4.18,4.18,8.36,11.7,8.36,23.41v34.28c0,3.34,2.51,7.52,8.36,5.85A124.58,124.58,0,0,0,325,199.44C325.83,130.88,269.81,74.87,200.41,74.87Z"/></g></svg>
