<svg id="google-plus" viewBox="0 0 400 400"><defs><style>.background,.icon{fill:#dc4e41;}</style></defs><circle class="background" cx="200" cy="200" r="200"/><path class="icon" d="M75.05,200.1c-1.56-40.95,34.32-78.8,75.31-79.29,20.9-1.79,41.23,6.33,57,19.56-6.49,7.13-13.09,14.18-20.14,20.78-13.92-8.45-30.68-14.9-46.95-9.17-26.24,7.47-42.13,38.45-32.42,64.12,8,26.81,40.65,41.53,66.21,30.27,13.24-4.74,22-17,25.79-30.07-15.17-.31-30.34-.12-45.51-.54,0-9-.07-18,0-27,25.29,0,50.62-.12,76,.11,1.56,22.11-1.7,45.77-16.08,63.52-19.68,25.33-56,32.76-85.63,22.83C97.2,264.87,74.37,233.25,75.05,200.1ZM279.61,166h22.56c0,7.55.11,15.13.15,22.68,7.55.07,15.13.11,22.68.15v22.6l-22.68.11c-.07,7.59-.11,15.13-.15,22.72-7.55,0-15.1,0-22.6,0-.08-7.59-.08-15.13-.15-22.68-7.55-.08-15.13-.11-22.68-.15V188.79c7.55,0,15.09-.07,22.68-.15C279.45,181.1,279.53,173.52,279.61,166Z"/></svg>
