<svg id="linkedin" viewBox="0 0 400 400"><defs><style>.background,.icon{fill:#007bb5;}</style></defs><circle class="background" cx="200" cy="200" r="200"/><path class="icon" d="M292.24,214.66V283.6h-40V219.28c0-16.16-5.78-27.19-20.25-27.19-11,0-17.61,7.43-20.5,14.62-1.06,2.57-1.33,6.15-1.33,9.75V283.6h-40s.54-108.94,0-120.23h40v17l-.27.39h.27v-.39c5.31-8.18,14.79-19.87,36-19.87C272.52,160.54,292.24,177.73,292.24,214.66ZM128.38,105.41c-13.67,0-22.62,9-22.62,20.77,0,11.54,8.69,20.78,22.09,20.78h.27c13.94,0,22.61-9.24,22.61-20.78C150.47,114.38,142.06,105.41,128.38,105.41ZM108.13,283.6h40V163.37h-40Z"/></svg>
