<svg id="twitter" viewBox="0 0 400 400"><defs><style>.background,.icon{fill:#1da1f2;}</style></defs><circle class="background" cx="200" cy="200" r="200"/><path class="icon" d="M304.31,139a85.17,85.17,0,0,1-24.57,6.74A43,43,0,0,0,298.55,122a86.31,86.31,0,0,1-27.19,10.39,42.83,42.83,0,0,0-72.93,39,121.49,121.49,0,0,1-88.21-44.72,42.84,42.84,0,0,0,13.25,57.13,42.72,42.72,0,0,1-19.39-5.37V179a42.85,42.85,0,0,0,34.33,42,43.61,43.61,0,0,1-11.28,1.5,40.5,40.5,0,0,1-8.06-.8,42.82,42.82,0,0,0,40,29.73,85.93,85.93,0,0,1-53.16,18.29,90.42,90.42,0,0,1-10.2-.59,120.91,120.91,0,0,0,65.6,19.26c78.73,0,121.76-65.21,121.76-121.77l-.14-5.54A85.22,85.22,0,0,0,304.31,139Z"/></svg>
