<svg viewBox="0 0 400 271.08"><defs><style>.logo{fill:#fff;}</style></defs><path class="logo" d="M54.22,257.16q8.91,5.8,26.34,6.58v7.34H0v-7.34q9.69-1.55,18.2-12t17.43-33.3L49,184l4.7,13q-8.43,24.38-8.43,38.52Q45.31,251.36,54.22,257.16ZM322.54,127.8V127q63.9-10.45,63.91-63.52,0-34.45-26.92-49T278.84,0V7.34c11.66.51,19.64,4.38,24,11.44q7,11.43,7,40.09v18.2q0,25.17-7.94,37.37c-4.59,7.06-12.27,11-23,12v7.34q21.74,1.37,30.92,12.58,10.46,12.78,10.46,38.34v21q0,28.66-8.52,43.37t-29.82,14.72h-3q-5.8-.37-11.81-6.39T256,239L163.32,0H120.55L100.71,51,105,63.13,140.2,160l2.71,7.74,22.85,63.52q4.65,11.61,4.64,18.59c0,4.91-2.06,8.32-6.19,10.26s-11.11,3.17-20.91,3.68v7.34H278.84q58.16-.29,89.4-16.83Q400,237.41,400,195.19,400,137.49,322.54,127.8Z"/></svg>
