<?xml version="1.0"?>
<svg viewBox="0 0 105 74.1" xmlns="http://www.w3.org/2000/svg">
	<path id="a" d="M25,19.1c-13.8,0 -25,11.2 -25,25 0,13.8 11.2,25 25,25 3.3,0 6.5,-.7 9.55,-1.9V69.1H50V19.1h-15.45v1.9C31.5,19.7 28.3,19.1 25,19.1ZM25,34.55c5.3,0 9.55,4.3 9.55,9.55 0,5.3 -4.3,9.55 -9.55,9.55 -5.3,0 -9.55,-4.3 -9.55,-9.55 0,-5.3 4.3,-9.55 9.55,-9.55Z" fill="white" />
	<path id="b" d="M65.45,0v21.05c1.6,-.6 3.3,-1.15 5,-1.45V5ZM94.95,29.1c3.3,4.3 5,9.6 5,15 0,13.8 -11.2,25 -25,25 -3.3,0 -6.5,-.7 -9.55,-1.9V69.1H50l5,5h15.45v-1.9c3,1.3 6.3,1.9 9.55,1.9 13.8,0 25,-11.2 25,-25C105,41.2 101.3,33.8 94.95,29.1ZM75,34.55c-5.3,0 -9.55,4.3 -9.55,9.55 0,3.8 2.3,7.2 5.8,8.7C70.8,51.6 70.5,50.4 70.45,49.1 70.45,43.8 74.7,39.55 80,39.55c1.3,0 2.5,.3 3.7,.8C82.2,36.9 78.8,34.6 75,34.55Z" fill="white" />
</svg>
